<svg width="157" height="204" viewBox="0 0 157 204" fill="none" xmlns="http://www.w3.org/2000/svg">
<g clip-path="url(#clip0_1_169)">
<path d="M86.2201 31.7049C86.4075 31.6499 86.5671 31.5526 86.7139 31.4349C86.5182 31.4983 86.3526 31.5926 86.217 31.7049H86.2201Z" fill="#9055FF"/>
<path d="M85.4294 14.6586C85.4265 14.6638 85.4242 14.6698 85.4213 14.675C85.4584 14.6519 85.451 14.6504 85.4287 14.6586H85.4294Z" fill="#9055FF"/>
<path d="M150.185 125.2C145.877 110.922 142.019 96.6479 140.068 81.8316C139.129 74.7006 138.671 67.4482 138.905 60.2554C139.014 56.9055 141.912 44.5537 139.1 43.1435C137.57 42.3773 135.666 42.7046 135.666 40.4558C135.666 37.5456 136.586 36.7659 134.084 35.0351C131.57 33.2961 126.97 33.2207 124.007 32.6551C122.142 32.2992 120.301 31.8294 118.507 31.2004C116.981 30.6657 117.204 27.8393 116.659 26.3092C114.397 19.9579 108.7 15.5644 102.625 13.2205C100.047 12.2259 97.3515 11.9936 94.6186 11.8103C92.844 11.6919 89.2016 13.3224 87.799 12.3835C86.309 11.3858 86.6478 7.87682 85.3272 6.39798C83.9367 4.84146 81.8519 1.24579 79.9652 0.396645C78.4655 -0.279051 75.3787 0.132701 73.7186 0.0437146C68.7443 -0.222492 55.8 3.32793 52.6077 5.63329C53.0482 6.37988 53.2733 6.89645 53.6633 7.69356C55.3723 6.75694 70.0219 1.04519 75.2138 1.71863C79.5022 2.27442 88.3967 9.36998 85.4289 14.6587C85.4545 14.6504 85.4605 14.6519 85.4206 14.6753C85.4236 14.67 85.4259 14.6639 85.4289 14.6587C85.2821 14.7054 84.2213 15.1948 84.1889 15.2039C83.244 12.6497 81.8301 10.3767 80.2739 8.15283C78.0017 4.90556 74.4187 5.23059 70.5504 4.89199C67.2904 4.60617 58.8815 7.87003 55.6825 8.77724C55.1977 8.91449 54.776 9.04797 54.4056 9.18447C54.8762 10.2093 55.1186 10.7086 55.8195 11.5879C56.4083 11.2063 56.7682 10.9484 57.9924 10.2478C60.8797 8.59474 71.2024 7.62494 74.5098 7.62494C77.0026 7.62494 77.626 7.21997 78.8796 9.45219C80.6037 12.5215 82.6598 14.4649 81.4619 17.1435C79.8576 20.7301 75.2032 24.7308 72.8384 28.0723C72.9958 28.1982 73.1531 28.2948 73.3112 28.3755C73.6877 28.294 74.107 28.3566 74.5738 28.5836C77.1088 28.1816 79.5767 23.3017 81.2715 21.4978C83.3464 19.2898 86.9339 14.3389 90.0222 13.8555C100.775 12.1738 111.872 17.5515 114.986 28.2488C109.584 23.5732 103.012 18.5522 95.7351 17.5809C88.3538 16.5953 82.6154 24.7029 78.4685 30.2759C78.7832 30.4953 79.0738 30.6499 79.3539 30.7751C79.7777 30.7592 80.2272 30.8467 80.703 31.0579C82.4911 30.938 83.5678 28.7322 85.0667 27.0158C85.3099 28.5926 85.5267 30.1808 85.6833 31.7751C85.8814 31.7803 86.059 31.7547 86.2217 31.7064C86.3587 31.5941 86.5183 31.4998 86.7156 31.4365C88.4058 30.0775 87.5949 24.8876 88.9388 22.7851C90.0508 25.2911 90.3407 28.0949 90.4348 30.806C90.7502 30.8377 91.0138 30.8301 91.2509 30.8037C91.5295 30.5662 91.863 30.4063 92.2658 30.3663C93.088 29.5021 92.4811 27.5866 92.3268 26.046C92.0535 23.3168 90.818 21.6713 93.0751 20.4059C99.0289 17.0673 109.623 27.2624 112.874 30.8942C106.326 32.2871 99.7171 31.6604 93.5156 34.5962C93.1053 33.2298 92.7943 31.7999 92.7228 30.3656C92.5609 30.349 92.4104 30.352 92.2658 30.3663C92.0445 30.5986 91.7169 30.7525 91.2509 30.8037C89.9176 31.9425 89.9575 34.9929 90.8745 36.6233C92.1619 38.9121 92.984 36.3843 95.9399 35.9642C99.1012 35.5155 112.92 31.4161 115.249 33.8021C117.066 35.6641 113.657 39.3819 112.432 40.9415C109.488 44.6925 106.9 48.7361 104.937 53.0904C104.048 55.0609 100.762 66.7061 99.3414 66.9362C87.8396 68.8041 76.264 70.0266 64.8278 72.3184C66.6219 66.7506 68.0396 61.0736 69.7561 55.4832C70.9984 51.4381 72.7925 42.0455 76.2671 39.354C78.8013 37.391 84.2002 39.5169 86.2985 37.9438C87.8599 36.7726 87.6853 33.0118 87.6183 31.3331C87.2531 31.3165 86.9595 31.3558 86.7148 31.4349C86.568 31.5526 86.4084 31.6499 86.2209 31.7049C85.0931 32.6317 85.7187 35.0238 83.57 35.7402C81.8542 36.3119 79.6618 36.2629 77.8496 36.7101C78.9262 34.8911 80.1075 33.1174 81.3693 31.4214C81.1405 31.2713 80.9184 31.1529 80.7008 31.0571C80.2927 31.0843 79.8463 30.9953 79.3516 30.7743C76.569 30.8776 74.8464 35.3707 73.3624 37.943C71.0985 41.869 69.1674 46.1374 67.5555 50.371C65.9729 54.5263 64.8104 58.821 63.715 63.1241C62.7137 67.0568 63.5923 73.3854 58.4915 73.1984C61.8396 57.3588 66.4013 42.7046 75.2989 29.0406C75.0414 28.8355 74.8019 28.6952 74.5708 28.5821C74.1507 28.6485 73.7283 28.5874 73.3082 28.3739C71.6692 28.7314 70.7959 31.6001 69.8427 33.2712C67.822 36.8126 67.8905 38.0305 63.8596 38.3835C55.2797 39.1346 47.1418 41.8653 38.6056 42.7023C39.6175 35.7749 41.7316 29.3536 45.557 23.4442C47.3888 20.6147 49.4803 17.8833 51.8646 15.495C53.6136 13.7439 55.0064 12.8178 55.8165 11.5864C55.4408 11.0404 55.0486 10.4537 54.2949 8.97181C49.5202 13.1798 45.1956 17.7423 41.843 23.2263C39.6521 26.8106 33.4326 39.394 36.475 43.5869C38.1479 45.8915 43.7177 43.6269 46.154 43.3222C52.8682 42.4829 59.2564 40.5289 66.0414 39.7085C62.5247 45.8938 60.2314 52.7631 58.5118 59.6498C57.6362 63.1557 56.784 66.6813 56.0763 70.2257C55.4905 73.1584 55.7834 73.1615 52.8592 73.5431C50.9627 73.7912 49.088 74.1546 47.2111 74.5219C40.3087 75.8748 32.7806 77.9238 25.7411 76.2843C22.5512 75.5415 19.3657 73.9246 17.1154 71.5491C14.3455 68.6254 13.3314 69.3622 9.72583 68.9693C5.17692 68.4738 3.09746 65.9015 2.64197 61.3896C2.2994 57.999 4.76509 57.9704 7.76156 56.7343C10.8936 55.4433 13.9804 54.0383 17.1169 52.7511C20.1194 51.5188 23.1452 50.3718 26.1808 49.2255C31.0467 47.3885 32.2114 47.6992 32.496 42.2823C32.8845 34.8888 36.3681 27.5316 40.5232 21.5499C42.8805 18.1563 45.5337 14.8872 48.5309 12.0313C50.7308 9.93407 52.3999 8.60078 53.6422 7.69432C53.3004 6.99675 52.9586 6.30597 52.5867 5.63405C45.7603 10.7772 33.2782 22.35 30.7041 37.0434C30.2253 39.7756 30.8479 45.6216 28.3807 46.626C25.1592 47.9375 21.8947 49.1041 18.6272 50.2941C14.4313 51.822 3.6049 53.7435 0.9269 57.5103C-0.533691 59.5646 0.133363 66.2303 0.134868 68.7046C0.136374 72.5989 0.445809 76.5264 0.806439 80.4018C1.32668 85.9937 1.64289 92.3208 1.45467 97.1728C0.844083 112.944 3.18404 128.308 4.44738 143.975C5.05872 151.556 5.77697 159.747 4.66195 167.312C4.10632 171.081 1.07974 180.417 4.18387 183.814C6.03897 185.844 10.1075 186.846 12.3865 188.654C15.5863 191.193 18.5285 194.068 21.6093 196.752C22.9065 197.883 24.267 198.864 25.7223 199.775C27.216 200.711 27.3689 203.02 29.1735 203.732C32.423 205.014 35.4699 201.345 37.9243 199.821C42.8692 196.753 50.9243 195.375 56.6477 193.7C63.6141 191.662 70.5707 189.531 77.5899 187.641C92.713 183.568 108.377 182.241 123.702 179.173C131.63 177.585 139.34 175.755 147.044 173.295C150.495 172.193 156.884 172.394 156.972 167.714C157.236 153.341 152.854 139.201 150.166 125.197L150.185 125.2Z" fill="#5726B4"/>
<path d="M91.2493 30.8023C91.7146 30.751 92.0428 30.5971 92.2642 30.3649C91.8652 30.4048 91.5264 30.5647 91.2478 30.8023H91.2493Z" fill="#9055FF"/>
<path d="M74.5722 28.5836C74.1046 28.3559 73.6853 28.2933 73.3096 28.3755C73.7297 28.5889 74.152 28.65 74.5722 28.5836Z" fill="#9055FF"/>
<path d="M80.7015 31.0572C80.2249 30.846 79.7762 30.7593 79.3523 30.7744C79.8492 30.9961 80.2934 31.0843 80.7 31.0572H80.7015Z" fill="#9055FF"/>
<path d="M66.0608 59.6257C65.9434 60.1544 65.8259 60.683 65.7085 61.2124C65.8259 60.6838 65.9426 60.1551 66.0608 59.6257Z" fill="#9055FF"/>
<path d="M116.742 40.0591C113.518 45.4058 111.255 51.475 109.468 57.4417C108.441 60.8714 107.848 67.2363 103.192 66.8532C106.135 56.6408 107.724 46.8357 116.743 40.0591" fill="#9055FF"/>
<path d="M2.70506 70.2031C8.63099 72.2521 14.1428 75.4827 20.1411 77.304C23.0622 78.1908 26.1016 79.2323 29.1719 79.3974C31.9357 79.546 34.2749 78.4736 37.1103 78.1358C48.6828 76.7549 60.6371 74.5808 72.5048 72.9783C86.7636 71.0523 104.768 72.3607 117.824 65.6489C121.707 63.6528 124.907 61.815 128.314 59.1054C130.293 57.5323 135.401 53.2594 135.401 50.8568C135.401 46.4165 137.533 42.9075 132.628 49.3146C126.885 56.8151 119.347 63.0744 110.056 65.4438C112.227 57.3121 114.522 49.0929 118.296 41.535C120.369 37.3821 116.909 33.2502 122.727 33.9779C126.038 34.3919 129.179 35.9032 132.407 36.7101C131.284 39.7266 127.494 39.8775 125.543 42.1745C128.447 46.102 138.48 41.4966 138.48 46.2732C138.48 49.6999 136.429 52.4962 135.753 55.7473C134.791 60.3723 135.045 65.7447 134.828 70.4671C134.675 73.8056 135.392 74.893 132.766 77.0264C130.359 78.9826 127.951 80.9388 125.543 82.895C128.511 75.0084 135.127 68.1029 133.64 59.0979C130.49 64.2749 127.677 69.6307 124.972 75.0506C123.583 77.8356 122.225 80.6379 120.836 83.4237C119.039 87.0276 117.124 87.6558 113.382 88.974C102.086 92.9521 89.7397 93.3088 78.1152 96.0274C65.5986 98.9549 52.9005 101.269 39.9885 101.045C36.7112 100.989 33.4287 100.953 30.1589 100.699C25.028 100.301 25.1086 100.168 24.3512 95.323C23.6239 90.6723 24.376 84.6582 20.4799 82.0142C17.8297 84.2125 21.555 95.9067 22.0639 99.2897C15.9949 98.6759 11.0816 95.0357 6.78191 90.9679C1.87839 86.3376 3.10559 76.896 2.70129 70.2084" fill="#9055FF"/>
<path d="M54.2693 114.099C60.5024 111.323 67.0449 109.103 73.6274 107.401C69.7478 108.605 66.0338 109.76 62.5337 111.974C59.2496 114.052 54.1978 121.528 50.3972 120.445C51.8578 118.454 54.2542 116.765 54.2693 114.103" fill="#9055FF"/>
<path d="M23.8235 119.74C21.7523 118.979 19.3837 119.462 17.8403 117.625C17.7726 117.78 17.6438 118.361 17.6642 118.33C16.8789 117.797 11.416 114.425 15.0245 115.024C18.5345 115.607 21.9955 116.03 25.668 116.349C30.3457 116.754 33.7547 115.831 37.9024 113.923C40.9681 112.512 45.5765 111.698 47.0529 108.283C47.1282 110.827 50.2843 108.188 50.0449 107.401C49.7083 106.295 44.5616 107.531 43.7094 107.488V108.283C38.1614 104.567 28.9107 109.747 22.9434 103.522C31.3139 104.437 39.7379 104.631 48.1288 103.747C52.5745 103.279 56.9495 102.599 61.3509 101.812C65.1544 101.132 70.8093 98.3085 74.5075 99.8205C57.0542 106.034 42.7893 118.266 23.8235 119.729" fill="#9055FF"/>
<path d="M48.2853 116.739C46.5748 118.505 45.1059 122.934 41.9498 120.969L48.2853 116.739Z" fill="#9055FF"/>
<path d="M79.0827 106.166C86.2878 104.367 95.7267 100.327 101.962 106.519C93.5659 101.752 83.28 106.032 74.5067 107.047C76.0479 106.791 77.5612 106.497 79.082 106.165" fill="#9055FF"/>
<path d="M98.62 101.4C101.037 101.032 103.322 102.252 105.307 103.516C102.928 103.991 100.496 102.799 98.6215 101.397" fill="#9055FF"/>
<path d="M90.1727 96.8221C99.5273 94.1064 108.817 92.7091 117.979 89.2423C116.847 93.4059 115.197 98.0777 116.219 102.419C117.531 107.989 122.077 104.571 125.106 102.551C128.704 100.152 132.281 96.721 134.215 92.6359C135.287 90.3713 133.742 85.2161 133.995 84.836C135.417 82.6965 135.572 85.2824 136.105 86.4227C138.122 90.7265 135.002 94.4006 132.205 97.5121C130.121 99.8325 122.539 107.167 119.123 105.946C114.97 104.462 112.655 100.642 108.301 99.2918C102.488 97.4895 96.2319 97.0294 90.1788 96.8258" fill="#9055FF"/>
<path d="M127.659 95.0574C128.923 92.7634 130.215 90.4482 131.178 88.0063C132.864 90.495 129.619 93.602 127.662 95.0574" fill="#9055FF"/>
<path d="M11.504 116.211C10.8565 115.285 11.2119 114.567 9.91992 114.624V113.742C11.5695 113.976 12.2945 114.828 11.504 116.208" fill="#9055FF"/>
<path d="M153.001 168.743C123.923 178.956 92.7671 179.31 63.4378 188.828C56.5956 191.049 49.4937 192.737 42.8721 195.581C39.8274 196.889 31.6263 203.806 28.9257 200.429C25.3292 195.931 20.5559 192.531 16.4565 188.424C12.3962 184.356 5.86943 181.266 7.93911 175.046C10.462 167.461 8.03322 156.507 7.54008 148.596C7.18999 142.981 6.7872 137.363 6.26244 131.762C5.84609 127.312 3.71167 120.324 4.8154 116.214C15.1306 123.613 25.354 126.992 38.2012 125.68C50.8022 124.395 62.8957 120.92 75.3326 118.69C97.5848 114.7 121.788 115.66 138.214 97.7039C138.885 100.202 143.395 115.114 142.255 116.425C137.128 122.317 132.263 126.2 125.267 129.703C113.682 135.504 98.684 135.489 86.0416 136.896C73.6559 138.274 61.5232 141.93 49.1647 143.712C43.037 144.596 36.6766 145.329 30.4879 144.822C26.6844 144.512 28.4521 144.427 27.6066 141.773C27.2121 140.535 27.0503 139.175 26.8139 137.896C22.7957 138.447 25.8163 142.785 23.8227 144.241C21.8087 145.711 12.9894 140.138 10.8001 139.481C10.6819 147.518 12.9435 156.526 21.7552 157.33C24.3843 157.569 27.3236 162.91 24.7472 163.455C18.9342 164.681 16.5189 159.448 11.6802 158.694C9.63535 158.376 9.88681 157.712 10.2723 160.016C10.3559 160.515 11.0432 161.547 11.3278 161.957C13.9772 165.761 18.5743 167.288 22.7671 168.655C25.7425 169.625 26.0866 168.818 26.5541 172.448C26.9012 175.148 27.1737 177.858 27.5223 180.556C28.1751 185.618 28.9423 190.66 31.039 195.36C33.2006 192.572 30.6701 190.083 30.4729 187.231C30.1725 182.881 29.8713 178.532 29.5702 174.182C29.2291 169.248 29.2171 169.981 34.2719 169.614C47.2237 168.675 59.8729 165.718 72.4867 162.766C98.7909 156.61 127.824 155.819 150.184 139.127C153.324 148.305 155.115 159.179 152.992 168.749" fill="#9055FF"/>
<path d="M135.752 127.319C130.5 134.319 123.528 140.907 115.513 144.595C118.874 141.95 122.536 139.706 125.879 137.027C129.583 134.056 131.94 130.134 135.749 127.321" fill="#9055FF"/>
<path d="M114.634 145.124C114.047 145.535 113.46 145.946 112.874 146.357C113.461 145.942 114.048 145.527 114.635 145.12" fill="#9055FF"/>
<path d="M103.725 137.01C101.501 138.243 95.3871 143.069 95.9804 138.244C98.5703 137.897 101.145 137.422 103.728 137.007" fill="#9055FF"/>
<path d="M78.7289 156.934C76.5109 158.306 74.1401 160.535 71.5148 160.636C73.921 159.399 76.3272 158.162 78.7289 156.933" fill="#9055FF"/>
<path d="M63.0682 149.354C66.5646 144.844 71.307 142.042 76.9709 141.245C71.6225 142.776 68.818 148.56 63.0645 149.352" fill="#9055FF"/>
<path d="M28.3994 163.276C26.6414 159.602 28.7096 157.269 32.1826 156.225C35.8605 155.12 38.47 153.512 41.8353 151.83C47.5542 148.972 53.045 145.625 59.3715 144.239C49.9439 152.217 39.9019 158.74 28.3994 163.28" fill="#9055FF"/>
<path d="M58.8445 155.169C58.0495 156.157 57.6098 156.893 56.3811 156.932C57.1829 156.359 57.9765 155.635 58.8445 155.167" fill="#9055FF"/>
<path d="M55.1486 157.28C52.6626 159.822 49.2377 161.516 45.8219 162.391C48.6241 160.129 52.0061 158.967 55.1486 157.278" fill="#9055FF"/>
<path d="M27.6948 148.819C30.9766 148.572 34.1409 149.889 37.3746 148.819C33.9866 150.29 26.6114 155.742 27.6948 148.819Z" fill="#9055FF"/>
<path d="M60.6048 42.1746C63.5455 45.5297 57.265 45.9535 55.4227 46.5425C48.7627 48.6714 42.233 51.0499 35.771 53.7225C29.9391 56.1349 24.2504 59.4652 19.3024 63.3768C16.9256 65.2561 13.4616 67.6572 10.2716 66.3239C25.5777 54.8273 42.0794 46.9633 60.6048 42.1746Z" fill="#9055FF"/>
<path d="M36.8461 47.2867C36.3281 49.5121 28.541 51.9155 26.1536 53.159C22.274 55.1801 18.2484 56.892 14.1444 58.3919C18.4087 54.987 31.2537 45.2369 36.8461 47.2867Z" fill="#9055FF"/>
<path fill-rule="evenodd" clip-rule="evenodd" d="M61.8365 72.6706C64.5092 57.1997 69.467 43.2001 78.4669 30.2759C74.0317 27.4268 72.4612 33.4417 70.53 36.8081C68.3655 40.581 66.6926 44.6729 65.1522 48.7324C62.1256 56.7088 60.2517 64.8714 58.4915 73.2C59.5651 73.0303 60.8133 73.0167 61.838 72.6706" fill="#2E1957"/>
<path d="M91.0535 17.3192C100.282 16.8358 108.31 22.4684 114.988 28.2488C112.308 19.0417 102.058 11.8865 92.1091 13.529C85.2977 14.6534 78.9615 23.4397 75.3032 29.0414C79.0526 31.7766 80.6765 27.3536 83.0466 24.8107C85.5612 22.111 88.3168 19.7799 91.0573 17.3192" fill="#2E1957"/>
<path fill-rule="evenodd" clip-rule="evenodd" d="M88.938 22.7837C87.3238 25.3093 87.6182 28.4623 87.6182 31.3332C92.143 31.7834 90.1328 25.4797 88.9357 22.7837" fill="#9055FF"/>
<path fill-rule="evenodd" clip-rule="evenodd" d="M76.2669 39.3541C70.7935 49.7859 68.4174 61.1815 64.8276 72.3184C75.895 70.1005 87.0911 68.9249 98.221 67.118C101.3 66.618 102.731 57.9802 104.089 54.9683C106.146 50.4058 108.563 46.2498 111.463 42.1745C112.446 40.7937 116.435 36.6943 115.864 34.7268C114.894 31.3762 101.855 35.1234 99.5084 35.456C98.306 35.6272 90.9436 37.1988 91.0053 37.6347C90.6824 35.3565 90.5386 33.0964 90.4339 30.8038C85.2706 30.3506 89.154 35.0835 86.6507 37.4145C85.1223 38.8481 78.768 38.6203 76.276 39.3541" fill="#2E1957"/>
<path d="M125.543 42.1745C127.494 39.8774 131.284 39.7258 132.407 36.7101C129.394 35.9567 126.493 34.6136 123.432 34.0661C116.833 32.8852 121.011 36.0955 118.888 40.3472C114.897 48.3402 112.353 56.8362 110.056 65.4438C116.627 63.7681 122.628 60.0857 127.412 55.2887C129.764 52.9313 132.144 50.3899 133.916 47.5514C134.402 46.7709 134.795 46.2362 135.114 45.9127C135.241 45.2287 135.449 44.5809 135.732 43.961C132.668 43.5666 127.864 45.32 125.538 42.1745H125.543Z" fill="#2E1957"/>
<path d="M135.73 43.9602C135.447 44.58 135.239 45.2278 135.111 45.9118C135.975 45.0355 136.286 45.7595 136.365 47.727C136.589 53.2623 128.909 58.6302 125.157 61.6142C119.053 66.4693 110.68 68.0326 103.249 69.5212C89.1428 72.3477 73.6726 73.3386 59.4589 74.7858C56.6574 75.0708 54.0156 76.0746 51.2758 76.6372C49.1512 77.0731 43.4202 76.2397 42.0364 77.2103C39.2282 79.1793 30.238 79.6409 27.1211 79.1054C18.4569 77.6168 10.9198 73.0445 2.70288 70.2037C3.10718 76.8875 1.87998 86.333 6.77974 90.9686C11.0794 95.0363 15.9928 98.6757 22.0617 99.2903C21.2403 93.8252 20.4197 88.3608 19.5983 82.8956L20.4777 82.0148C24.2699 84.5887 23.505 89.9694 24.2172 94.4866C25.013 99.5347 24.4612 100.111 29.7788 100.661C33.1562 101.011 36.5946 100.989 39.9864 101.047C52.8983 101.27 65.5971 98.957 78.1131 96.0288C89.7368 93.3101 102.084 92.9534 113.38 88.9754C116.941 87.7213 118.756 87.1459 120.614 83.8662C122.142 81.1695 123.378 78.2721 124.75 75.4932C127.505 69.9164 130.404 64.4151 133.638 59.0992C135.126 68.1035 128.509 75.0098 125.541 82.8964C127.625 81.2034 129.708 79.5111 131.792 77.8181C134.801 75.3725 134.738 75.2707 134.782 71.439C134.837 66.5198 135.477 61.6286 135.706 56.7192C135.861 53.3958 138.737 50.3039 138.478 46.9359C138.343 44.8493 137.259 44.1389 135.753 43.9451L135.73 43.9602Z" fill="#9055FF"/>
<path fill-rule="evenodd" clip-rule="evenodd" d="M106.54 65.9716C109.978 57.3165 111.888 48.1184 116.747 40.0591C107.722 46.8357 106.134 56.6408 103.197 66.8532C104.356 66.8743 105.523 66.5885 106.54 65.9716" fill="#2E1957"/>
<path fill-rule="evenodd" clip-rule="evenodd" d="M17.1356 65.0908C24.7796 59.0472 32.9695 54.7427 42.0214 51.1945C46.4265 49.4675 50.9182 47.9827 55.4227 46.543C56.9932 46.0408 59.608 46.2761 60.7809 44.8191C64.2344 40.5281 52.8027 44.3176 51.1727 44.8259C46.2917 46.3485 41.5102 48.1893 36.8461 50.2835C27.2769 54.5798 18.6474 60.0328 10.2723 66.3245C12.8404 67.3976 14.7934 65.964 17.1356 65.0908Z" fill="#9055FF"/>
<path fill-rule="evenodd" clip-rule="evenodd" d="M14.1444 58.3919C18.2484 56.892 22.274 55.1801 26.1536 53.159C28.541 51.9155 36.3288 49.5121 36.8461 47.2867C31.2537 45.2369 18.4087 54.987 14.1444 58.3919Z" fill="#9055FF"/>
<path fill-rule="evenodd" clip-rule="evenodd" d="M119.738 106.166C126.111 103.346 133.536 98.4135 136.332 91.692C136.921 90.2742 136.829 85.8927 135.577 84.5723C134.765 83.7156 134.1 84.0331 133.643 85.3656C133.826 84.8302 135.116 87.8429 135.138 88.186C135.215 89.3828 134.985 90.6671 134.61 91.7998C132.647 97.7363 125.884 103.024 120.354 105.329C113.112 108.348 117.257 91.8971 117.978 89.2433C108.816 92.71 99.5264 94.1082 90.1719 96.823C96.2258 97.0312 102.485 97.4882 108.299 99.2913C112.794 100.686 115.316 104.864 119.735 106.169" fill="#9055FF"/>
<path fill-rule="evenodd" clip-rule="evenodd" d="M131.175 88.0063C130.213 90.4482 128.92 92.7634 127.656 95.0574C129.613 93.602 132.858 90.495 131.172 88.0063" fill="#9055FF"/>
<path d="M98.6201 157.28C81.8218 160.304 65.3645 165.123 48.524 167.867C44.1829 168.574 39.8343 169.207 35.4435 169.525C34.8005 169.573 29.2706 169.81 29.2917 170.115C29.4776 172.801 29.6636 175.486 29.8488 178.172C30.1206 182.106 30.022 186.035 31.2605 189.759C31.8981 191.675 32.3913 193.614 31.0406 195.356C29.1328 191.08 28.2888 186.481 27.6933 181.866C27.158 177.713 27.9839 169.523 23.5607 168.782C19.1993 168.052 15.3498 165.97 12.1214 162.964C11.3445 162.24 8.72895 156.843 10.9778 158.248C14.7354 160.597 18.4946 163.625 23.121 163.625C27.6752 163.625 25.0416 158.384 22.2417 157.368C18.1053 155.868 16.894 157.268 13.8267 152.778C11.2586 149.021 10.7376 143.899 10.8024 139.475C12.9925 140.132 21.8118 145.705 23.825 144.235C25.8186 142.779 22.7981 138.441 26.8162 137.89C27.2401 140.188 27.0835 144.537 29.2141 144.712C35.7702 145.248 42.2217 144.576 48.7281 143.761C61.2048 142.199 73.3345 138.592 85.7729 136.92C98.1834 135.252 113.073 135.804 124.512 130.077C131.522 126.567 136.613 122.905 141.764 116.986C143.554 114.929 139.099 100.987 138.216 97.6978C122.017 115.407 98.5877 114.514 76.654 118.447C64.2525 120.67 52.1221 124.253 39.564 125.535C26.1416 126.904 15.6893 124.005 4.81848 116.207C3.27131 121.969 6.31822 132.145 6.81061 138.359C7.40764 145.895 7.7886 153.432 8.16279 160.982C8.43458 166.465 9.15433 171.395 7.41517 176.626C5.8552 181.318 15.8648 187.912 18.9862 190.86C21.5807 193.311 24.745 195.408 27.1693 197.999C28.1217 199.018 28.6306 200.471 29.8097 201.26C32.2874 202.916 43.0054 195.41 46.044 194.341C60.2464 189.346 74.7191 184.584 89.4846 181.655C105.422 178.493 121.81 177.632 137.565 173.531C141.806 172.427 145.863 171.245 149.996 169.793C154.422 168.238 153.897 164.46 153.881 160.011C153.856 153.061 152.439 145.687 150.183 139.123C134.9 150.54 117.117 154.348 98.6261 157.282" fill="#9055FF"/>
<path d="M136.979 161.519C136.19 157.69 136.803 149.41 141.204 147.945C141.061 151.708 139.405 158.608 136.981 161.519" fill="#9055FF"/>
<path fill-rule="evenodd" clip-rule="evenodd" d="M43.1815 107.395C43.6551 107.47 43.9306 107.516 43.1815 107.395V107.395Z" fill="#9055FF"/>
<path fill-rule="evenodd" clip-rule="evenodd" d="M72.044 99.2881C55.9331 103.55 39.5481 105.332 22.9441 103.519C28.9114 109.743 38.1621 104.563 43.7101 108.279C43.3042 107.65 43.5851 107.819 43.1823 107.397C44.3929 107.611 48.6211 106.23 49.5185 107.132C50.5515 108.17 47.1274 110.773 47.0544 108.279C45.5012 111.873 41.4062 111.871 38.4316 113.61C34.3419 116.003 30.4164 116.756 25.6687 116.345C23.6457 116.17 21.6197 116.08 19.5975 115.904C18.8567 115.839 15.9709 114.898 15.2895 115.064C11.8398 115.908 15.9513 117.164 17.6656 118.326C17.6453 118.357 17.774 117.776 17.8418 117.621C22.4946 123.158 36.3386 118.071 41.3814 115.815C52.6588 110.77 62.8174 103.985 74.5089 99.816C73.6996 99.6425 72.8662 99.3635 72.044 99.2881Z" fill="#9055FF"/>
<path fill-rule="evenodd" clip-rule="evenodd" d="M105.306 103.519C103.32 102.256 101.035 101.036 98.6185 101.403C100.493 102.805 102.925 103.997 105.304 103.522" fill="#9055FF"/>
<path fill-rule="evenodd" clip-rule="evenodd" d="M101.963 106.513C95.7275 100.321 86.2886 104.361 79.0835 106.16C86.2283 104.825 95.2253 102.691 101.964 106.514" fill="#9055FF"/>
<path fill-rule="evenodd" clip-rule="evenodd" d="M74.5074 107.048C76.0456 106.87 77.5905 106.573 79.0835 106.167C77.5626 106.498 76.0493 106.792 74.5082 107.049" fill="#9055FF"/>
<path d="M69.1401 108.722C70.6459 108.317 72.1411 107.861 73.6273 107.4C72.1193 107.785 70.5947 108.147 69.1401 108.72" fill="#9055FF"/>
<path fill-rule="evenodd" clip-rule="evenodd" d="M53.3891 120.441C57.4261 115.125 62.7806 110.911 69.1402 108.719C65.2501 109.899 57.1709 111.105 54.2693 114.095C53.1693 115.228 51.5913 118.814 50.3979 120.441C51.3481 120.441 52.4571 120.615 53.3891 120.441Z" fill="#9055FF"/>
<path d="M9.92078 114.627C10.4802 115.122 11.2654 114.869 11.5048 116.214C12.4392 114.577 10.6563 113.152 9.92078 114.63" fill="#9055FF"/>
<path d="M48.2853 116.739L41.9498 120.969C45.1067 122.937 46.5748 118.503 48.2853 116.739Z" fill="#9055FF"/>
<path d="M115.515 144.596C123.499 140.401 130.331 134.549 135.754 127.321C132.085 130.027 129.794 133.685 126.337 136.663C122.949 139.582 119.026 141.829 115.518 144.597" fill="#9055FF"/>
<path fill-rule="evenodd" clip-rule="evenodd" d="M103.725 137.01C101.144 137.421 98.5711 137.899 95.9805 138.244C95.3857 143.07 101.499 138.244 103.728 137.007" fill="#9055FF"/>
<path fill-rule="evenodd" clip-rule="evenodd" d="M63.0682 149.354C68.8217 148.567 71.6262 142.782 76.9709 141.245C71.3032 142.037 66.5608 144.835 63.0645 149.352" fill="#9055FF"/>
<path fill-rule="evenodd" clip-rule="evenodd" d="M39.4864 153.057C35.9953 156.469 24.8007 155.762 28.3995 163.28C39.902 158.738 49.9447 152.213 59.3723 144.243C52.2884 145.789 45.8151 149.658 39.4864 153.051" fill="#9055FF"/>
<path fill-rule="evenodd" clip-rule="evenodd" d="M137.86 151.821C137.793 155.098 136.301 158.22 136.98 161.516C139.399 158.605 141.058 151.708 141.205 147.943C139.444 148.531 137.998 149.911 137.862 151.819" fill="#9055FF"/>
<path d="M27.6948 148.819C26.6114 155.734 33.9866 150.282 37.3746 148.819C34.1402 149.89 30.9766 148.578 27.6948 148.819Z" fill="#9055FF"/>
<path fill-rule="evenodd" clip-rule="evenodd" d="M58.8445 155.169C57.9765 155.634 57.1829 156.358 56.3811 156.932C57.6106 156.887 58.0495 156.155 58.8445 155.167" fill="#9055FF"/>
<path d="M78.7289 156.934C76.3242 158.168 73.9195 159.401 71.5148 160.636C74.1423 160.53 76.5154 158.305 78.7289 156.933" fill="#9055FF"/>
<path d="M55.1486 157.28C52.0053 158.962 48.6234 160.124 45.8219 162.391C49.2377 161.516 52.6626 159.827 55.1486 157.278" fill="#9055FF"/>
<path d="M46.8782 43.2325C44.5119 43.6752 38.1214 45.8267 36.4944 43.5854C33.437 39.3721 39.7333 26.3476 42.1184 22.8492C44.4396 19.4444 46.8609 16.2884 49.6465 13.2522C50.6177 12.1934 52.7973 10.7184 54.4032 9.18449C54.1661 8.72372 53.886 8.15435 53.6609 7.69434C41.2963 17.7845 33.1418 30.3596 32.2707 46.9338C27.0435 48.8651 21.82 50.8175 16.6688 52.9434C13.195 54.377 3.58444 56.9478 2.52965 59.9786C1.54789 62.7998 4.14006 66.992 6.40172 68.3517C8.13335 69.3924 9.99447 68.6873 11.8571 68.8811C15.3467 69.243 15.5289 70.5545 18.2807 72.7588C28.1849 80.6937 41.8564 74.9834 52.8786 73.5423C56.7198 73.0401 56.0837 70.2181 56.8742 66.6994C57.5796 63.5622 58.3016 60.4364 59.1532 57.3346C60.8298 51.233 62.9266 45.2204 66.0608 39.707C59.4423 40.5063 53.3748 42.0161 46.8782 43.2325Z" fill="#2E1957"/>
<path fill-rule="evenodd" clip-rule="evenodd" d="M85.422 14.675C85.4614 14.6519 85.4554 14.6504 85.4302 14.6586C85.4227 14.6638 85.4227 14.6698 85.4227 14.675H85.422Z" fill="#9055FF"/>
<path fill-rule="evenodd" clip-rule="evenodd" d="M74.5722 1.69607C72.3226 1.61538 57.7889 5.13035 53.6609 7.69438C53.9402 8.23735 54.1442 8.62196 54.4032 9.18453C59.5748 7.97944 69.7936 4.72162 75.231 5.40184C80.0976 6.01117 82.4963 10.637 84.1865 15.2047C84.2189 15.1957 85.2797 14.7055 85.4265 14.6595C88.4982 9.18152 79.1851 1.86122 74.5692 1.69607H74.5722Z" fill="#2E1957"/>
</g>
<defs>
<clipPath id="clip0_1_169">
<rect width="157" height="204" fill="white"/>
</clipPath>
</defs>
</svg>
