<svg width="81" height="43" viewBox="0 0 81 43" fill="none" xmlns="http://www.w3.org/2000/svg">
<path fill-rule="evenodd" clip-rule="evenodd" d="M73.9632 4.1399C72.9141 4.53884 71.6873 5.00049 70.2528 5.53438C63.8722 7.90922 60.4781 7.85713 57.6921 7.3401C57.095 7.2293 56.5492 7.10469 56.0245 6.98491C54.1481 6.55656 52.5422 6.18996 49.8315 6.73714C47.4687 7.21418 45.5681 8.99671 44.1724 10.7418C43.5496 11.5206 43.0556 12.255 42.6752 12.8204C42.6358 12.8789 42.5977 12.9357 42.5607 12.9904C42.3785 13.2604 42.1896 13.5382 42.0314 13.7211C41.9878 13.7714 41.9312 13.8329 41.8642 13.8923C41.8074 13.9428 41.6884 14.0418 41.5182 14.1111C41.3361 14.1852 40.9746 14.2672 40.6008 14.0532C40.2673 13.8622 40.1519 13.5598 40.1141 13.4359L40.1135 13.4342C40.0822 13.3309 39.9087 12.951 39.547 12.3618C39.2033 11.8019 38.7308 11.1195 38.159 10.4275C36.9935 9.01673 35.514 7.68517 33.9649 7.14892L33.964 7.14859C32.5457 6.65602 31.0225 6.63119 28.7868 6.90045C27.6688 7.03508 26.4038 7.2386 24.904 7.48048L24.87 7.48597C23.3843 7.72558 21.6829 7.99995 19.7122 8.27249C15.5071 8.85404 10.4559 7.9123 6.59085 6.66986C6.90993 7.45363 7.14355 8.25052 7.28275 9.01307C8.04407 13.1763 10.0772 21.2589 15.1537 28.2748C20.1987 35.2472 28.2529 41.1825 41.1957 41.1656C56.7411 41.1457 64.8617 32.7241 69.1532 24.2535C71.3088 19.9988 72.4924 15.7339 73.136 12.525C73.4574 10.9229 73.643 9.58989 73.748 8.66107C73.8006 8.19681 73.8329 7.83398 73.852 7.58948C73.8615 7.46725 73.8678 7.37464 73.8715 7.31377C73.8734 7.28333 73.8747 7.26084 73.8755 7.24655L73.8763 7.23129L73.8765 7.22855C73.8765 7.22839 73.8765 7.22872 73.8765 7.22855C73.8764 7.22873 73.8765 7.22855 74.8753 7.27596L75.8742 7.32337C75.9004 6.77171 75.4744 6.30327 74.9227 6.27708C74.3712 6.25091 73.9029 6.67713 73.8765 7.22855M3.80707 5.64278C4.54843 6.77157 5.08485 8.11001 5.31527 9.37224C6.0992 13.6592 8.20323 22.0807 13.5334 29.4472C18.8952 36.8574 27.5173 43.1835 41.1983 43.1656C57.6773 43.1445 66.3958 34.1213 70.9373 25.1574C73.1983 20.6948 74.4297 16.245 75.097 12.9184C75.4311 11.2528 75.6249 9.86295 75.7354 8.88582C75.7906 8.39711 75.8251 8.0112 75.8459 7.74519C75.8563 7.61217 75.8633 7.5091 75.8677 7.43809C75.8699 7.40259 75.8715 7.3751 75.8725 7.35589L75.8737 7.33332L75.874 7.32676L75.8741 7.32466C75.8742 7.32395 75.8742 7.32337 74.8753 7.27596M5.11013 4.0163C5.60567 4.21407 6.14175 4.41154 6.71156 4.60393C10.4978 5.88235 15.4792 6.83886 19.4382 6.29135C21.3866 6.0219 23.0694 5.75052 24.557 5.51061L24.5856 5.50599C26.0742 5.26592 27.3819 5.05519 28.5476 4.9148C30.8793 4.634 32.7678 4.61598 34.6201 5.25929C36.6863 5.9749 38.4528 7.64285 39.7009 9.15371C40.3361 9.92261 40.8624 10.6817 41.2515 11.3155C41.2557 11.3224 41.2599 11.3292 41.264 11.336C41.6173 10.8159 42.0694 10.1692 42.6105 9.49268C44.0853 7.64859 46.3622 5.39722 49.4357 4.77669C52.6012 4.13772 54.6633 4.61315 56.5999 5.05968C57.0884 5.1723 57.5689 5.28308 58.057 5.37368C60.427 5.8135 63.4517 5.93171 69.5552 3.66C74.0726 1.97864 76.5081 1.0221 77.8102 0.487983C78.4615 0.220807 78.823 0.0618677 79.0163 -0.0273001C79.1129 -0.0718136 79.1633 -0.0970032 79.1845 -0.107942C79.1949 -0.1133 79.1963 -0.114235 79.1913 -0.11144L79.1779 -0.103618L79.167 -0.0970082L79.1605 -0.0929559L79.157 -0.0907304L79.1552 -0.0895659C79.1549 -0.0894141 79.1547 -0.089262 79.1633 -0.0753488L80.3677 1.49156L79.6928 0.753584C80.3677 1.49156 80.368 1.4913 80.3677 1.49156L80.3663 1.49284L80.3528 1.50512L80.3133 1.54077C80.279 1.57178 80.2284 1.61712 80.1622 1.67598C80.0297 1.7937 79.8344 1.96552 79.5797 2.18498C79.0703 2.62387 78.323 3.25344 77.3656 4.02182C75.4511 5.55818 72.6935 7.65166 69.3136 9.88623C67.733 10.9312 66.0133 12.0091 64.1774 13.0763C64.3336 13.2476 64.4814 13.4257 64.6209 13.6102C65.8656 15.2563 66.3934 17.3367 66.3285 19.3994C66.2002 23.481 63.7109 27.8638 59.157 29.0295C55.1646 30.0515 50.3989 29.1449 45.6204 27.5372C44.9861 27.3239 44.3485 27.0969 43.709 26.8589C44.0246 27.0762 44.4255 27.3699 44.8302 27.7148C45.2722 28.0914 45.7476 28.5533 46.12 29.0661C46.4813 29.5636 46.8241 30.2162 46.8241 30.9532C46.8241 31.5887 46.5821 32.3872 46.2738 33.1346C45.9515 33.9158 45.5035 34.7674 44.9875 35.5449C44.4769 36.3142 43.8676 37.0598 43.2076 37.5877C42.5803 38.0893 41.6917 38.5606 40.7212 38.3012C40.0337 38.1176 39.3022 37.5958 38.6677 37.0531C37.9976 36.48 37.3027 35.7656 36.6776 35.0417C36.0527 34.318 35.478 33.5622 35.0551 32.8984C34.8445 32.5679 34.6598 32.242 34.5256 31.9421C34.4071 31.6774 34.2665 31.3033 34.2785 30.9218C34.287 30.6498 34.3565 30.3603 34.4297 30.1119C34.5076 29.8474 34.6121 29.557 34.7289 29.2608C34.9629 28.6679 35.2662 28.0019 35.5613 27.3863C35.8577 26.768 36.1521 26.1877 36.372 25.7627C36.4821 25.5499 36.5738 25.3753 36.6382 25.2536C36.6705 25.1927 36.6959 25.145 36.7134 25.1123L36.7335 25.0747L36.7403 25.062L36.7409 25.061C36.7409 25.0609 36.7409 25.0609 37.6213 25.5352L36.7409 25.061L37.0495 24.4882L37.698 24.5382L37.7026 24.5385L37.7198 24.5398L37.7911 24.5447C37.8542 24.549 37.9477 24.555 38.0665 24.5617C38.089 24.563 38.1125 24.5643 38.1368 24.5656C37.7075 24.3753 37.2794 24.183 36.8531 23.9896C36.8016 24.1389 36.7456 24.2892 36.6853 24.4404C34.5556 29.7779 28.2821 31.1679 23.0952 29.961C17.8666 28.7444 12.9313 24.7063 13.6762 18.3857C13.6877 18.2877 13.7012 18.1913 13.7166 18.0964C13.6956 18.0756 13.6749 18.0547 13.6545 18.0335C13.3525 17.7207 13.0573 17.3187 12.912 16.8289C12.7577 16.3085 12.7915 15.7471 13.0664 15.206C13.5657 14.2234 14.7793 13.461 16.5849 12.8005C20.4232 11.3963 26.3203 11.6836 30.7887 13.5024C33.0343 14.4165 35.0424 15.7661 36.2288 17.6133C36.8264 18.5438 37.1979 19.574 37.2992 20.6897C39.1465 20.4712 40.9847 20.1463 42.8032 19.7338C42.914 19.7086 43.0247 19.6832 43.1353 19.6573C43.7438 18.2524 44.8261 16.7591 46.2176 15.406C49.1784 12.5267 53.7779 10.0603 58.8248 10.5465C60.2597 10.6848 61.4946 11.0973 62.5249 11.7202C64.5638 10.5558 66.4695 9.36899 68.2106 8.21788C70.421 6.75651 72.3602 5.3567 73.9632 4.1399M60.3773 12.9101C59.8561 12.7273 59.276 12.5992 58.633 12.5373C54.3466 12.1243 50.297 14.2287 47.6119 16.8398C46.8896 17.5422 46.2834 18.265 45.8076 18.9626C51.0055 17.4761 55.956 15.2846 60.3773 12.9101ZM42.5885 21.8294C41.2463 22.1179 39.89 22.3603 38.5242 22.5488C39.9711 23.1958 41.4264 23.8202 42.8743 24.3949C42.92 24.3855 42.9646 24.3758 43.008 24.3657C43.2 24.3211 43.3483 24.2747 43.4591 24.2316C43.4388 24.2086 43.4158 24.1837 43.3898 24.1567C42.7633 23.5068 42.5511 22.6821 42.5885 21.8294ZM45.2919 25.307C45.4794 25.0494 45.6091 24.7239 45.5999 24.3265C45.5854 23.7025 45.2244 23.1781 44.8297 22.7687C44.6341 22.5658 44.4819 22.1257 44.6669 21.3423C51.0752 19.713 57.1363 16.9982 62.3763 14.0982C62.617 14.3212 62.8331 14.5618 63.0256 14.8165C63.944 16.031 64.3829 17.6389 64.3295 19.3366C64.2214 22.776 62.1342 26.2029 58.6611 27.0919C55.2543 27.964 50.9555 27.222 46.2581 25.6416C45.937 25.5336 45.6149 25.422 45.2919 25.307ZM41.8743 26.5444C40.865 26.6274 39.796 26.6245 38.9839 26.6018C38.6886 26.5936 38.4242 26.5826 38.2053 26.5719C38.1869 26.6071 38.1679 26.6438 38.1483 26.6816C37.9344 27.0952 37.6497 27.6565 37.3647 28.2509C37.0785 28.8479 36.7982 29.4655 36.5894 29.9948C36.4849 30.2598 36.4032 30.4902 36.3481 30.6772C36.3207 30.7702 36.3021 30.845 36.2905 30.9026C36.2869 30.9208 36.2842 30.9357 36.2823 30.9476C36.2904 30.9745 36.3092 31.0316 36.3509 31.1248C36.4314 31.3045 36.5614 31.5406 36.7418 31.8237C37.1009 32.3873 37.6134 33.0652 38.1914 33.7345C38.7692 34.4037 39.3929 35.0416 39.9676 35.5332C40.5778 36.0551 41.0171 36.3102 41.2373 36.3689C41.2701 36.3777 41.4892 36.401 41.9584 36.0257C42.3949 35.6767 42.8713 35.1166 43.3211 34.4389C43.7654 33.7695 44.1523 33.0328 44.4249 32.3719C44.7114 31.6772 44.8241 31.1799 44.8241 30.9532C44.8241 30.8281 44.7563 30.5919 44.5017 30.2413C44.2581 29.9059 43.9122 29.5602 43.533 29.2371C43.1587 28.9181 42.7796 28.6445 42.4917 28.4495C42.3486 28.3526 42.2302 28.2766 42.1489 28.2256C42.1083 28.2001 42.0772 28.181 42.057 28.1688L42.0352 28.1556L42.0311 28.1532M42.9612 26.576L42.6095 27.1724C42.7928 26.8615 42.8993 26.6809 42.9612 26.576C42.9612 26.576 42.9612 26.5759 42.9612 26.576ZM34.9514 20.9085C35.0705 20.9004 35.1895 20.8919 35.3085 20.8829C35.2362 20.0687 34.9629 19.3433 34.546 18.6941C33.665 17.3224 32.0702 16.1834 30.0347 15.3549C26.0833 13.7465 20.9356 13.4914 17.6228 14.5583C18.4543 14.5116 19.3531 14.6234 20.2713 14.8239C23.4606 15.5203 27.6788 17.4819 32.1615 19.5951C32.3683 19.6926 32.5759 19.7905 32.7841 19.8888C33.4994 20.2262 34.2226 20.5673 34.9514 20.9085ZM15.6067 19.3877C15.4883 23.8631 19.0849 26.9744 23.5485 28.013C28.3049 29.1198 33.2355 27.6897 34.8277 23.6992C34.9022 23.5126 34.9678 23.3294 35.0248 23.1497C34.8715 23.0785 34.7184 23.0072 34.5657 22.936C28.6211 23.2712 22.5782 22.4687 16.7915 19.9098C16.7753 19.9038 16.7543 19.8959 16.7288 19.8862C16.6694 19.8635 16.5858 19.8308 16.4834 19.7887C16.2793 19.7047 15.9971 19.582 15.6818 19.4254C15.6571 19.4131 15.6321 19.4006 15.6067 19.3877ZM17.504 18.0409L17.5379 18.053L17.5717 18.068C21.7318 19.9123 26.0533 20.8006 30.3981 20.9756C26.2163 19.012 22.5661 17.3721 19.8446 16.7779C18.3754 16.4571 17.3725 16.4892 16.7468 16.7658C16.4851 16.8815 16.2456 17.0601 16.0552 17.3568C16.2245 17.4555 16.3991 17.5485 16.5715 17.6342C16.8356 17.7653 17.0733 17.8688 17.2442 17.9391C17.3293 17.9741 17.397 18.0005 17.4421 18.0177C17.4646 18.0263 17.4813 18.0325 17.4918 18.0364L17.5025 18.0403L17.504 18.0409ZM5.11013 4.0163C4.54519 3.25536 3.88808 2.57985 3.15102 2.05458L5.11013 4.0163ZM3.15102 2.05458C3.05136 1.98345 2.94301 1.89424 2.79767 1.77452L2.79084 1.7689C2.65572 1.65759 2.48336 1.51571 2.30563 1.39323C2.1348 1.27551 1.89071 1.12657 1.6011 1.0486C1.28366 0.963127 0.870439 0.954997 0.472416 1.19269C0.183577 1.36533 -0.127774 1.67012 -0.21367 2.14202C-0.294288 2.58493 -0.134829 2.95847 0.0138754 3.19743C0.297771 3.65363 0.808582 4.05013 1.32613 4.38129C1.96835 4.79222 2.81699 5.22278 3.80707 5.64278" fill="#E5EE53"/>
</svg>
